<svg xmlns="http://www.w3.org/2000/svg" viewBox="0 0 64 64">
  <path d="M14 18 L20 8 L24 17 Z M50 18 L44 8 L40 17 Z" fill="#6F54A0"/>
  <ellipse cx="32" cy="37" rx="21" ry="22" fill="#8C6BB8"/>
  <ellipse cx="32" cy="46" rx="12" ry="10" fill="#C9B6E6"/>
  <path d="M26 44 Q28 46 30 44 M34 44 Q36 46 38 44 M29 50 Q31 52 33 50" fill="none" stroke="#8C6BB8" stroke-width="1.3" stroke-linecap="round"/>
  <circle cx="23" cy="30" r="8.5" fill="#FFFFFF"/><circle cx="41" cy="30" r="8.5" fill="#FFFFFF"/>
  <g fill="#2B2B35"><circle cx="23.5" cy="30.5" r="3.6"/><circle cx="40.5" cy="30.5" r="3.6"/></g>
  <g fill="#fff"><circle cx="24.8" cy="29.2" r="1.2"/><circle cx="41.8" cy="29.2" r="1.2"/></g>
  <path d="M29.5 35 L34.5 35 L32 39.5 Z" fill="#F2A93B"/>
</svg>
